<?xml version="1.0" encoding="UTF-8" standalone="no"?>
<svg width="211px" height="211px" viewBox="0 0 211 211" version="1.1" xmlns="http://www.w3.org/2000/svg" xmlns:xlink="http://www.w3.org/1999/xlink">
    <!-- Generator: Sketch 3.7.2 (28276) - http://www.bohemiancoding.com/sketch -->
    <title>mapillary arrow green square</title>
    <desc>Created with Sketch.</desc>
    <defs></defs>
    <g id="Page-1" stroke="none" stroke-width="1" fill="none" fill-rule="evenodd">
        <g id="Mapillary-brand" transform="translate(-2462.000000, -862.000000)">
            <g id="mapillary-arrow-green-square" transform="translate(2462.000000, 862.000000)">
                <rect id="Rectangle-18" fill="#36AF6D" x="0" y="0" width="211" height="211" rx="39"></rect>
                <path d="M102.477944,134.915057 C104.71133,136.092427 158.866504,165.668694 160.575803,166.619895 C163.991861,168.520884 167.606849,164.842924 165.747969,161.404435 C164.811643,159.672451 135.4792,103.885043 134.48855,102.176365 C133.497901,100.467686 131.061143,99.6058705 129.230318,100.752489 C127.436854,101.87571 125.369865,103.140511 124.214482,103.746429 C121.879647,104.970889 121.593306,106.810964 122.640741,108.856795 C124.942825,113.353185 132.188258,126.994967 133.017625,128.42456 C134.754286,131.418072 130.882638,134.834901 128.257314,133.342576 C127.145446,132.710551 109.952763,123.37763 108.737936,122.646516 C107.523109,121.915401 105.370944,121.922812 103.894353,124.388422 C102.820622,126.181337 101.503142,128.405959 100.895387,129.521287 C99.70039,131.714301 100.244557,133.737688 102.477944,134.915057 L102.477944,134.915057 Z" id="Path-24" fill="#FFFFFF"></path>
                <path d="M45.305091,103.717989 C42.4221183,102.104507 42.9494146,97.912182 46.5873658,96.8429325 C49.6696314,95.9370075 74.6995448,87.2775216 82.2741119,84.6532398 C83.6396912,84.1801216 84.7057855,83.0921033 85.1645401,81.7030253 C87.7444228,73.8913134 96.3614867,47.7994218 97.3275039,44.874383 C98.4652983,41.429214 102.584291,41.4165755 104.263072,44.7518146 C104.859357,45.9364555 127.523448,88.3322931 128.311984,90.1307099 C129.100519,91.9291267 128.592492,93.9212107 126.805335,95.0702424 C125.018178,96.2192742 122.10371,97.9379112 121.088293,98.589008 C119.249962,99.7677664 117.487963,98.9470881 116.648726,97.1212153 C115.809489,95.2953424 109.343939,83.514374 106.707471,78.5128613 C105.389647,76.0128817 101.419564,75.0535014 100.085129,79.0940803 C99.119956,82.0165613 96.8703496,88.8282191 95.6992455,92.3742442 C95.2511984,93.7309008 94.1155441,94.8985981 92.7888584,95.3521451 C89.4964744,96.4776949 83.2404504,98.6164084 79.5878965,99.8650875 C76.9813937,100.756159 75.7144459,104.876618 79.2335975,106.611762 C79.9686991,106.974209 95.8132505,115.749015 97.448034,116.551591 C99.0828174,117.354167 99.9918571,119.670956 99.0345702,121.312273 C97.7288378,123.551019 96.0572109,126.39231 95.4508184,127.314751 C94.3998541,128.913473 92.3353667,129.4459 90.6015079,128.502296 C88.867649,127.558692 46.3352298,104.294515 45.305091,103.717989 Z" id="Path-2" fill="#FFFFFF"></path>
            </g>
        </g>
    </g>
</svg>