<?xml version="1.0" encoding="UTF-8" standalone="no"?>
<svg width="211px" height="211px" viewBox="0 0 211 211" version="1.1" xmlns="http://www.w3.org/2000/svg" xmlns:xlink="http://www.w3.org/1999/xlink">
    <!-- Generator: Sketch 3.7.2 (28276) - http://www.bohemiancoding.com/sketch -->
    <title>mapillary arrow green dot</title>
    <desc>Created with Sketch.</desc>
    <defs></defs>
    <g id="Page-1" stroke="none" stroke-width="1" fill="none" fill-rule="evenodd">
        <g id="Mapillary-brand" transform="translate(-2722.000000, -862.000000)">
            <g id="mapillary-arrow-green-dot" transform="translate(2722.000000, 862.000000)">
                <circle id="Oval-7" fill="#36AF6D" cx="105.5" cy="105.5" r="105.5"></circle>
                <path d="M98.4779436,131.915057 C100.71133,133.092427 154.866504,162.668694 156.575803,163.619895 C159.991861,165.520884 163.606849,161.842924 161.747969,158.404435 C160.811643,156.672451 131.4792,100.885043 130.48855,99.1763646 C129.497901,97.467686 127.061143,96.6058705 125.230318,97.7524892 C123.436854,98.8757096 121.369865,100.140511 120.214482,100.746429 C117.879647,101.970889 117.593306,103.810964 118.640741,105.856795 C120.942825,110.353185 128.188258,123.994967 129.017625,125.42456 C130.754286,128.418072 126.882638,131.834901 124.257314,130.342576 C123.145446,129.710551 105.952763,120.37763 104.737936,119.646516 C103.523109,118.915401 101.370944,118.922812 99.8943532,121.388422 C98.8206221,123.181337 97.5031416,125.405959 96.895387,126.521287 C95.70039,128.714301 96.2445567,130.737688 98.4779436,131.915057 L98.4779436,131.915057 Z" id="Path-24" fill="#FFFFFF"></path>
                <path d="M41.305091,100.717989 C38.4221183,99.1045072 38.9494146,94.912182 42.5873658,93.8429325 C45.6696314,92.9370075 70.6995448,84.2775216 78.2741119,81.6532398 C79.6396912,81.1801216 80.7057855,80.0921033 81.1645401,78.7030253 C83.7444228,70.8913134 92.3614867,44.7994218 93.3275039,41.874383 C94.4652983,38.429214 98.5842909,38.4165755 100.263072,41.7518146 C100.859357,42.9364555 123.523448,85.3322931 124.311984,87.1307099 C125.100519,88.9291267 124.592492,90.9212107 122.805335,92.0702424 C121.018178,93.2192742 118.10371,94.9379112 117.088293,95.589008 C115.249962,96.7677664 113.487963,95.9470881 112.648726,94.1212153 C111.809489,92.2953424 105.343939,80.514374 102.707471,75.5128613 C101.389647,73.0128817 97.4195641,72.0535014 96.0851295,76.0940803 C95.119956,79.0165613 92.8703496,85.8282191 91.6992455,89.3742442 C91.2511984,90.7309008 90.1155441,91.8985981 88.7888584,92.3521451 C85.4964744,93.4776949 79.2404504,95.6164084 75.5878965,96.8650875 C72.9813937,97.7561587 71.7144459,101.876618 75.2335975,103.611762 C75.9686991,103.974209 91.8132505,112.749015 93.448034,113.551591 C95.0828174,114.354167 95.9918571,116.670956 95.0345702,118.312273 C93.7288378,120.551019 92.0572109,123.39231 91.4508184,124.314751 C90.3998541,125.913473 88.3353667,126.4459 86.6015079,125.502296 C84.867649,124.558692 42.3352298,101.294515 41.305091,100.717989 Z" id="Path-2" fill="#FFFFFF"></path>
            </g>
        </g>
    </g>
</svg>